<svg width="40" height="41" viewBox="0 0 40 41" fill="none" xmlns="http://www.w3.org/2000/svg">
<g clip-path="url(#clip0_7_5459)">
<path d="M40 20.1079C40 9.06221 31.0457 0.10791 20 0.10791C8.9543 0.10791 0 9.06221 0 20.1079C0 31.1536 8.9543 40.1079 20 40.1079C31.0457 40.1079 40 31.1536 40 20.1079Z" fill="url(#paint0_linear_7_5459)"/>
<path fill-rule="evenodd" clip-rule="evenodd" d="M11.13 8.67932C13.2775 8.87156 16.4415 9.92885 18.5319 11.1183C18.579 11.1453 18.6238 11.1752 18.6661 11.2076C18.9624 11.4346 19.1373 11.7881 19.1373 12.1876V28.9001C19.1373 29.7531 18.3149 30.3418 17.5724 30.0174C15.4478 29.0803 12.8091 28.2633 10.9358 27.999L10.5817 27.9509C9.47368 27.8067 8.57129 26.7374 8.57129 25.572V11.2865C8.57129 9.84475 9.67929 8.67932 11.05 8.67932H11.13ZM15.4363 15.6599C15.4363 15.1673 15.048 14.7588 14.5796 14.7588H12.0095C11.5412 14.7588 11.1528 15.1673 11.1528 15.6599C11.1528 15.6914 11.1543 15.7225 11.1573 15.7531C11.2017 16.2125 11.5705 16.561 12.0095 16.561H14.5796C15.048 16.561 15.4363 16.1645 15.4363 15.6599ZM11.1573 19.3575C11.2017 19.8169 11.5705 20.1654 12.0095 20.1654H15.4363C15.9047 20.1654 16.293 19.7689 16.293 19.2643C16.293 18.7717 15.9047 18.3632 15.4363 18.3632H12.0095C11.5412 18.3632 11.1528 18.7717 11.1528 19.2643C11.1528 19.2958 11.1543 19.3269 11.1573 19.3575ZM31.428 11.2865C31.428 9.84475 30.32 8.67932 28.9493 8.67932H28.8808C26.7333 8.87156 23.5692 9.92885 21.4789 11.1183C21.1019 11.3346 20.862 11.7431 20.862 12.1876V28.9001C20.862 29.7531 21.6845 30.3418 22.4269 30.0174C24.286 29.1974 26.5386 28.4694 28.3277 28.1231C28.5513 28.0799 28.7677 28.0425 28.9752 28.0117C29.0048 28.0073 29.0343 28.0031 29.0635 27.999L29.4176 27.9509C30.5256 27.8067 31.428 26.7374 31.428 25.572V11.2865Z" fill="white"/>
</g>
<defs>
<linearGradient id="paint0_linear_7_5459" x1="-5.72912e-07" y1="40.1079" x2="41.3551" y2="38.6541" gradientUnits="userSpaceOnUse">
<stop stop-color="#8A2EFF"/>
<stop offset="1" stop-color="#A2C6FF"/>
</linearGradient>
<clipPath id="clip0_7_5459">
<rect width="40" height="40" fill="white" transform="translate(0 0.10791)"/>
</clipPath>
</defs>
</svg>
