<svg viewBox="0 0 16 17" fill="none" xmlns="http://www.w3.org/2000/svg">
<path d="M12.6663 14.0539H6.59967C3.71301 14.0539 2.83301 13.1739 2.83301 10.2872V4.22058C2.83301 3.94725 3.05967 3.72058 3.33301 3.72058H9.39967C12.2863 3.72058 13.1663 4.60058 13.1663 7.48725V13.5539C13.1663 13.8272 12.9397 14.0539 12.6663 14.0539ZM3.83301 4.72058V10.2872C3.83301 12.6139 4.27301 13.0539 6.59967 13.0539H12.1663V7.48725C12.1663 5.16058 11.7263 4.72058 9.39967 4.72058H3.83301Z" fill="white"/>
<path d="M3.33301 4.72058C3.05967 4.72058 2.83301 4.49391 2.83301 4.22058V2.22058C2.83301 1.94725 3.05967 1.72058 3.33301 1.72058C3.60634 1.72058 3.83301 1.94725 3.83301 2.22058V4.22058C3.83301 4.49391 3.60634 4.72058 3.33301 4.72058Z" fill="white"/>
<path d="M3.33301 4.72058H1.33301C1.05967 4.72058 0.833008 4.49391 0.833008 4.22058C0.833008 3.94725 1.05967 3.72058 1.33301 3.72058H3.33301C3.60634 3.72058 3.83301 3.94725 3.83301 4.22058C3.83301 4.49391 3.60634 4.72058 3.33301 4.72058Z" fill="white"/>
<path d="M12.667 16.054C12.3937 16.054 12.167 15.8273 12.167 15.554V13.554C12.167 13.2806 12.3937 13.054 12.667 13.054C12.9403 13.054 13.167 13.2806 13.167 13.554V15.554C13.167 15.8273 12.9403 16.054 12.667 16.054Z" fill="white"/>
<path d="M14.667 14.054H12.667C12.3937 14.054 12.167 13.8273 12.167 13.554C12.167 13.2806 12.3937 13.054 12.667 13.054H14.667C14.9403 13.054 15.167 13.2806 15.167 13.554C15.167 13.8273 14.9403 14.054 14.667 14.054Z" fill="white"/>
</svg>
