<svg width="16" height="18" viewBox="0 0 16 18" fill="none" xmlns="http://www.w3.org/2000/svg">
<g clip-path="url(#clip0_7_5527)">
<path fill-rule="evenodd" clip-rule="evenodd" d="M8 1.99994C6.93913 1.99994 5.92172 2.42137 5.17157 3.17151C4.42143 3.92166 4 4.93907 4 5.99994C4 7.06081 4.42143 8.07822 5.17157 8.82837C5.92172 9.57851 6.93913 9.99994 8 9.99994C9.06087 9.99994 10.0783 9.57851 10.8284 8.82837C11.5786 8.07822 12 7.06081 12 5.99994C12 4.93907 11.5786 3.92166 10.8284 3.17151C10.0783 2.42137 9.06087 1.99994 8 1.99994ZM3 5.99994C3.00001 5.03235 3.28077 4.08556 3.80823 3.27438C4.33568 2.4632 5.08717 1.82248 5.97156 1.42994C6.85594 1.03741 7.83523 0.909907 8.79064 1.06291C9.74605 1.21591 10.6365 1.64284 11.3541 2.29192C12.0717 2.94101 12.5855 3.78435 12.8333 4.71968C13.0811 5.655 13.0521 6.64213 12.75 7.56133C12.4478 8.48053 11.8855 9.29232 11.1311 9.89824C10.3767 10.5042 9.46274 10.8782 8.5 10.9749V12.9999H10.5C10.6326 12.9999 10.7598 13.0526 10.8536 13.1464C10.9473 13.2402 11 13.3673 11 13.4999C11 13.6325 10.9473 13.7597 10.8536 13.8535C10.7598 13.9473 10.6326 13.9999 10.5 13.9999H8.5V16.4999C8.5 16.6325 8.44732 16.7597 8.35355 16.8535C8.25979 16.9473 8.13261 16.9999 8 16.9999C7.86739 16.9999 7.74021 16.9473 7.64645 16.8535C7.55268 16.7597 7.5 16.6325 7.5 16.4999V13.9999H5.5C5.36739 13.9999 5.24021 13.9473 5.14645 13.8535C5.05268 13.7597 5 13.6325 5 13.4999C5 13.3673 5.05268 13.2402 5.14645 13.1464C5.24021 13.0526 5.36739 12.9999 5.5 12.9999H7.5V10.9749C6.26668 10.851 5.12337 10.2733 4.29188 9.35408C3.46038 8.43482 2.99998 7.23947 3 5.99994Z" fill="white" stroke="white" stroke-width="0.5"/>
</g>
<defs>
<clipPath id="clip0_7_5527">
<rect width="16" height="17" fill="white" transform="translate(0 0.5)"/>
</clipPath>
</defs>
</svg>
