<svg  viewBox="0 0 40 41" fill="none" xmlns="http://www.w3.org/2000/svg">
<g clip-path="url(#clip0_7_5411)">
<path d="M40 20.1079C40 9.06221 31.0457 0.10791 20 0.10791C8.9543 0.10791 0 9.06221 0 20.1079C0 31.1536 8.9543 40.1079 20 40.1079C31.0457 40.1079 40 31.1536 40 20.1079Z" fill="url(#paint0_linear_7_5411)"/>
<path d="M17.569 29.0293C17.4326 29.1657 17.2699 29.2299 17.0808 29.2221C16.8911 29.2148 16.7281 29.143 16.5917 29.0066C16.4705 28.8853 16.4023 28.7339 16.3872 28.5521C16.372 28.3702 16.4175 28.2112 16.5235 28.0748L20.9327 21.9384L13.569 21.2339C13.175 21.2035 12.9135 20.999 12.7844 20.6202C12.656 20.2415 12.7432 19.9233 13.0462 19.6657L22.4781 11.2112C22.6145 11.0748 22.7774 11.0102 22.9672 11.0175C23.1563 11.0254 23.3191 11.0975 23.4554 11.2339C23.5765 11.3551 23.6447 11.5066 23.66 11.6884C23.675 11.8702 23.6296 12.0293 23.5236 12.1657L19.1145 18.3021L26.4781 19.0066C26.872 19.037 27.1332 19.2415 27.2618 19.6202C27.3909 19.999 27.3038 20.3172 27.0009 20.5748L17.569 29.0293Z" fill="#FFF500"/>
</g>
<defs>
<linearGradient id="paint0_linear_7_5411" x1="-4.86854e-07" y1="40.1079" x2="42.474" y2="40.5163" gradientUnits="userSpaceOnUse">
<stop offset="0.420387" stop-color="#1374AF"/>
<stop offset="0.9998" stop-color="#1474B0"/>
<stop offset="0.9999" stop-color="#872D2D"/>
<stop offset="1" stop-color="#6A4050"/>
</linearGradient>
<clipPath id="clip0_7_5411">
<rect width="40" height="40" fill="white" transform="translate(0 0.10791)"/>
</clipPath>
</defs>
</svg>
