<svg  viewBox="0 0 40 41" fill="none" xmlns="http://www.w3.org/2000/svg">
<g clip-path="url(#clip0_7_5400)">
<path d="M40 20.1079C40 9.06221 31.0457 0.10791 20 0.10791C8.9543 0.10791 0 9.06221 0 20.1079C0 31.1536 8.9543 40.1079 20 40.1079C31.0457 40.1079 40 31.1536 40 20.1079Z" fill="url(#paint0_linear_7_5400)"/>
<path d="M40 20.1079C40 9.06221 31.0457 0.10791 20 0.10791C8.9543 0.10791 0 9.06221 0 20.1079C0 31.1536 8.9543 40.1079 20 40.1079C31.0457 40.1079 40 31.1536 40 20.1079Z" fill="url(#paint1_linear_7_5400)" fill-opacity="0.8"/>
<path d="M40 20.1079C40 9.06221 31.0457 0.10791 20 0.10791C8.9543 0.10791 0 9.06221 0 20.1079C0 31.1536 8.9543 40.1079 20 40.1079C31.0457 40.1079 40 31.1536 40 20.1079Z" fill="url(#paint2_linear_7_5400)" fill-opacity="0.5"/>
<path d="M30.1817 19.3807H20.7272V9.92613C20.7272 9.73324 20.6506 9.54826 20.5142 9.41187C20.3778 9.27548 20.1928 9.19885 19.9999 9.19885H9.81809C9.62521 9.19885 9.44022 9.27548 9.30383 9.41187C9.16744 9.54826 9.09082 9.73324 9.09082 9.92613V30.2898C9.09082 30.4826 9.16744 30.6676 9.30383 30.804C9.44022 30.9404 9.62521 31.017 9.81809 31.017H12.7272V26.6534C12.7272 26.4605 12.8038 26.2755 12.9402 26.1391C13.0766 26.0027 13.2616 25.9261 13.4545 25.9261H16.3635C16.5564 25.9261 16.7414 26.0027 16.8778 26.1391C17.0142 26.2755 17.0908 26.4605 17.0908 26.6534V31.017H30.1817C30.3746 31.017 30.5596 30.9404 30.696 30.804C30.8324 30.6676 30.909 30.4826 30.909 30.2898V20.1079C30.909 19.9151 30.8324 19.7301 30.696 19.5937C30.5596 19.4573 30.3746 19.3807 30.1817 19.3807ZM13.4545 24.4716H11.9999V23.017H13.4545V24.4716ZM13.4545 22.2898H11.9999V20.8352H13.4545V22.2898ZM13.4545 20.1079H11.9999V18.6534H13.4545V20.1079ZM13.4545 17.9261H11.9999V16.4716H13.4545V17.9261ZM13.4545 15.7443H11.9999V14.2898H13.4545V15.7443ZM13.4545 13.5625H11.9999V12.1079H13.4545V13.5625ZM15.6363 24.4716H14.1817V23.017H15.6363V24.4716ZM15.6363 22.2898H14.1817V20.8352H15.6363V22.2898ZM15.6363 20.1079H14.1817V18.6534H15.6363V20.1079ZM15.6363 17.9261H14.1817V16.4716H15.6363V17.9261ZM15.6363 15.7443H14.1817V14.2898H15.6363V15.7443ZM15.6363 13.5625H14.1817V12.1079H15.6363V13.5625ZM17.8181 24.4716H16.3635V23.017H17.8181V24.4716ZM17.8181 22.2898H16.3635V20.8352H17.8181V22.2898ZM17.8181 20.1079H16.3635V18.6534H17.8181V20.1079ZM17.8181 17.9261H16.3635V16.4716H17.8181V17.9261ZM17.8181 15.7443H16.3635V14.2898H17.8181V15.7443ZM17.8181 13.5625H16.3635V12.1079H17.8181V13.5625ZM23.6363 28.1079H22.1817V26.6534H23.6363V28.1079ZM23.6363 25.9261H22.1817V24.4716H23.6363V25.9261ZM23.6363 23.7443H22.1817V22.2898H23.6363V23.7443ZM25.8181 28.1079H24.3635V26.6534H25.8181V28.1079ZM25.8181 25.9261H24.3635V24.4716H25.8181V25.9261ZM25.8181 23.7443H24.3635V22.2898H25.8181V23.7443ZM27.9999 28.1079H26.5454V26.6534H27.9999V28.1079ZM27.9999 25.9261H26.5454V24.4716H27.9999V25.9261ZM27.9999 23.7443H26.5454V22.2898H27.9999V23.7443Z" fill="white"/>
</g>
<defs>
<linearGradient id="paint0_linear_7_5400" x1="8.18182" y1="-0.801181" x2="15.4545" y2="41.9261" gradientUnits="userSpaceOnUse">
<stop stop-color="#5155FC"/>
<stop offset="1" stop-color="#00ED91"/>
</linearGradient>
<linearGradient id="paint1_linear_7_5400" x1="-3.31889e-07" y1="20.1079" x2="31.8182" y2="26.4715" gradientUnits="userSpaceOnUse">
<stop stop-color="#0F1A31"/>
<stop offset="1" stop-color="#2158C2" stop-opacity="0"/>
</linearGradient>
<linearGradient id="paint2_linear_7_5400" x1="34.5455" y1="5.56246" x2="13.6364" y2="21.017" gradientUnits="userSpaceOnUse">
<stop stop-color="#C028CD"/>
<stop offset="1" stop-color="#6C1673" stop-opacity="0"/>
</linearGradient>
<clipPath id="clip0_7_5400">
<rect width="40" height="40" fill="white" transform="translate(0 0.10791)"/>
</clipPath>
</defs>
</svg>
