<svg viewBox="0 0 14 15" fill="none" xmlns="http://www.w3.org/2000/svg">
<path d="M5.25065 6.77083C4.36398 6.77083 3.64648 6.05333 3.64648 5.16667C3.64648 4.28 4.36398 3.5625 5.25065 3.5625C6.13732 3.5625 6.85482 4.28 6.85482 5.16667C6.85482 6.05333 6.13732 6.77083 5.25065 6.77083ZM5.25065 4.4375C4.84815 4.4375 4.52148 4.76417 4.52148 5.16667C4.52148 5.56917 4.84815 5.89583 5.25065 5.89583C5.65315 5.89583 5.97982 5.56917 5.97982 5.16667C5.97982 4.76417 5.65315 4.4375 5.25065 4.4375Z" fill="#191919"/>
<path d="M5.25065 6.77083C4.36398 6.77083 3.64648 6.05333 3.64648 5.16667C3.64648 4.28 4.36398 3.5625 5.25065 3.5625C6.13732 3.5625 6.85482 4.28 6.85482 5.16667C6.85482 6.05333 6.13732 6.77083 5.25065 6.77083ZM5.25065 4.4375C4.84815 4.4375 4.52148 4.76417 4.52148 5.16667C4.52148 5.56917 4.84815 5.89583 5.25065 5.89583C5.65315 5.89583 5.97982 5.56917 5.97982 5.16667C5.97982 4.76417 5.65315 4.4375 5.25065 4.4375Z" fill="black" fill-opacity="0.2"/>
<path d="M5.25065 6.77083C4.36398 6.77083 3.64648 6.05333 3.64648 5.16667C3.64648 4.28 4.36398 3.5625 5.25065 3.5625C6.13732 3.5625 6.85482 4.28 6.85482 5.16667C6.85482 6.05333 6.13732 6.77083 5.25065 6.77083ZM5.25065 4.4375C4.84815 4.4375 4.52148 4.76417 4.52148 5.16667C4.52148 5.56917 4.84815 5.89583 5.25065 5.89583C5.65315 5.89583 5.97982 5.56917 5.97982 5.16667C5.97982 4.76417 5.65315 4.4375 5.25065 4.4375Z" fill="black" fill-opacity="0.2"/>
<path d="M5.25065 6.77083C4.36398 6.77083 3.64648 6.05333 3.64648 5.16667C3.64648 4.28 4.36398 3.5625 5.25065 3.5625C6.13732 3.5625 6.85482 4.28 6.85482 5.16667C6.85482 6.05333 6.13732 6.77083 5.25065 6.77083ZM5.25065 4.4375C4.84815 4.4375 4.52148 4.76417 4.52148 5.16667C4.52148 5.56917 4.84815 5.89583 5.25065 5.89583C5.65315 5.89583 5.97982 5.56917 5.97982 5.16667C5.97982 4.76417 5.65315 4.4375 5.25065 4.4375Z" fill="black" fill-opacity="0.2"/>
<path d="M8.74935 13.7708H5.24935C2.08185 13.7708 0.728516 12.4175 0.728516 9.24999V5.74999C0.728516 2.58249 2.08185 1.22916 5.24935 1.22916H7.58268C7.82185 1.22916 8.02018 1.42749 8.02018 1.66666C8.02018 1.90582 7.82185 2.10416 7.58268 2.10416H5.24935C2.56018 2.10416 1.60352 3.06082 1.60352 5.74999V9.24999C1.60352 11.9392 2.56018 12.8958 5.24935 12.8958H8.74935C11.4385 12.8958 12.3952 11.9392 12.3952 9.24999V6.33332C12.3952 6.09416 12.5935 5.89582 12.8327 5.89582C13.0718 5.89582 13.2702 6.09416 13.2702 6.33332V9.24999C13.2702 12.4175 11.9168 13.7708 8.74935 13.7708Z" fill="#191919"/>
<path d="M8.74935 13.7708H5.24935C2.08185 13.7708 0.728516 12.4175 0.728516 9.24999V5.74999C0.728516 2.58249 2.08185 1.22916 5.24935 1.22916H7.58268C7.82185 1.22916 8.02018 1.42749 8.02018 1.66666C8.02018 1.90582 7.82185 2.10416 7.58268 2.10416H5.24935C2.56018 2.10416 1.60352 3.06082 1.60352 5.74999V9.24999C1.60352 11.9392 2.56018 12.8958 5.24935 12.8958H8.74935C11.4385 12.8958 12.3952 11.9392 12.3952 9.24999V6.33332C12.3952 6.09416 12.5935 5.89582 12.8327 5.89582C13.0718 5.89582 13.2702 6.09416 13.2702 6.33332V9.24999C13.2702 12.4175 11.9168 13.7708 8.74935 13.7708Z" fill="black" fill-opacity="0.2"/>
<path d="M8.74935 13.7708H5.24935C2.08185 13.7708 0.728516 12.4175 0.728516 9.24999V5.74999C0.728516 2.58249 2.08185 1.22916 5.24935 1.22916H7.58268C7.82185 1.22916 8.02018 1.42749 8.02018 1.66666C8.02018 1.90582 7.82185 2.10416 7.58268 2.10416H5.24935C2.56018 2.10416 1.60352 3.06082 1.60352 5.74999V9.24999C1.60352 11.9392 2.56018 12.8958 5.24935 12.8958H8.74935C11.4385 12.8958 12.3952 11.9392 12.3952 9.24999V6.33332C12.3952 6.09416 12.5935 5.89582 12.8327 5.89582C13.0718 5.89582 13.2702 6.09416 13.2702 6.33332V9.24999C13.2702 12.4175 11.9168 13.7708 8.74935 13.7708Z" fill="black" fill-opacity="0.2"/>
<path d="M8.74935 13.7708H5.24935C2.08185 13.7708 0.728516 12.4175 0.728516 9.24999V5.74999C0.728516 2.58249 2.08185 1.22916 5.24935 1.22916H7.58268C7.82185 1.22916 8.02018 1.42749 8.02018 1.66666C8.02018 1.90582 7.82185 2.10416 7.58268 2.10416H5.24935C2.56018 2.10416 1.60352 3.06082 1.60352 5.74999V9.24999C1.60352 11.9392 2.56018 12.8958 5.24935 12.8958H8.74935C11.4385 12.8958 12.3952 11.9392 12.3952 9.24999V6.33332C12.3952 6.09416 12.5935 5.89582 12.8327 5.89582C13.0718 5.89582 13.2702 6.09416 13.2702 6.33332V9.24999C13.2702 12.4175 11.9168 13.7708 8.74935 13.7708Z" fill="black" fill-opacity="0.2"/>
<path d="M12.3958 3.85416H9.1875C8.94833 3.85416 8.75 3.65582 8.75 3.41666C8.75 3.17749 8.94833 2.97916 9.1875 2.97916H12.3958C12.635 2.97916 12.8333 3.17749 12.8333 3.41666C12.8333 3.65582 12.635 3.85416 12.3958 3.85416Z" fill="#191919"/>
<path d="M12.3958 3.85416H9.1875C8.94833 3.85416 8.75 3.65582 8.75 3.41666C8.75 3.17749 8.94833 2.97916 9.1875 2.97916H12.3958C12.635 2.97916 12.8333 3.17749 12.8333 3.41666C12.8333 3.65582 12.635 3.85416 12.3958 3.85416Z" fill="black" fill-opacity="0.2"/>
<path d="M12.3958 3.85416H9.1875C8.94833 3.85416 8.75 3.65582 8.75 3.41666C8.75 3.17749 8.94833 2.97916 9.1875 2.97916H12.3958C12.635 2.97916 12.8333 3.17749 12.8333 3.41666C12.8333 3.65582 12.635 3.85416 12.3958 3.85416Z" fill="black" fill-opacity="0.2"/>
<path d="M12.3958 3.85416H9.1875C8.94833 3.85416 8.75 3.65582 8.75 3.41666C8.75 3.17749 8.94833 2.97916 9.1875 2.97916H12.3958C12.635 2.97916 12.8333 3.17749 12.8333 3.41666C12.8333 3.65582 12.635 3.85416 12.3958 3.85416Z" fill="black" fill-opacity="0.2"/>
<path d="M10.791 5.45833C10.5518 5.45833 10.3535 5.26 10.3535 5.02083V1.8125C10.3535 1.57333 10.5518 1.375 10.791 1.375C11.0302 1.375 11.2285 1.57333 11.2285 1.8125V5.02083C11.2285 5.26 11.0302 5.45833 10.791 5.45833Z" fill="#292D32"/>
<path d="M1.5571 11.9917C1.4171 11.9917 1.2771 11.9217 1.19543 11.7992C1.06127 11.6008 1.11377 11.3267 1.3121 11.1925L4.18793 9.26166C4.81793 8.84166 5.6871 8.88833 6.25877 9.37249L6.45127 9.54166C6.74293 9.79249 7.23877 9.79249 7.5246 9.54166L9.95127 7.45916C10.5754 6.92833 11.5438 6.92833 12.1679 7.45916L13.1188 8.27583C13.2996 8.43333 13.3229 8.70749 13.1654 8.89416C13.0079 9.07499 12.7338 9.09833 12.5471 8.94083L11.5963 8.12416C11.3046 7.87333 10.8088 7.87333 10.5229 8.12416L8.09627 10.2067C7.47793 10.7375 6.50377 10.7375 5.8796 10.2067L5.6871 10.0375C5.41877 9.80999 4.97543 9.78666 4.67793 9.99083L1.80793 11.9217C1.72627 11.9683 1.63877 11.9917 1.5571 11.9917Z" fill="#292D32"/>
</svg>
