<svg viewBox="0 0 330 108" fill="none" xmlns="http://www.w3.org/2000/svg">
<path d="M104.598 66.8729L120.636 66.3938L120.658 73.0945L95.1162 73.8575L95.098 68.2736L110.736 44.5547L95.4001 45.0129L95.3782 38.3122L120.218 37.5701L120.236 43.1033L104.598 66.8729Z" fill="white"/>
<path d="M128.975 62.8447C129.921 65.9979 132.464 67.5127 136.604 67.389C139.268 67.3094 141.281 66.4031 142.643 64.6702L148.269 67.5482C145.617 71.2488 141.699 73.1766 136.515 73.3315C132.051 73.4648 128.465 72.3028 125.757 69.8453C123.049 67.3878 121.688 64.2301 121.676 60.3721C121.663 56.548 122.985 53.327 125.641 50.7093C128.296 48.0577 131.712 46.6696 135.888 46.5448C139.848 46.4265 143.11 47.6152 145.674 50.1108C148.274 52.6053 149.581 55.7478 149.593 59.5381C149.596 60.3841 149.509 61.2836 149.332 62.2366L128.975 62.8447ZM128.85 57.7717L142.62 57.3603C142.218 55.6462 141.386 54.3849 140.123 53.5765C138.896 52.7671 137.491 52.386 135.907 52.4333C134.035 52.4892 132.489 52.9923 131.268 53.9426C130.047 54.8591 129.241 56.1354 128.85 57.7717Z" fill="white"/>
<path d="M159.06 61.946C160.006 65.0991 162.549 66.6139 166.689 66.4902C169.353 66.4106 171.366 65.5043 172.729 63.7714L178.355 66.6494C175.702 70.3501 171.784 72.2778 166.601 72.4327C162.137 72.566 158.551 71.404 155.842 68.9465C153.134 66.489 151.774 63.3313 151.761 59.4733C151.749 55.6492 153.07 52.4282 155.726 49.8105C158.381 47.1589 161.797 45.7708 165.973 45.646C169.933 45.5277 173.195 46.7164 175.759 49.212C178.36 51.7066 179.666 54.849 179.678 58.6393C179.681 59.4853 179.594 60.3848 179.417 61.3378L159.06 61.946ZM158.935 56.8729L172.705 56.4615C172.303 54.7474 171.471 53.4862 170.208 52.6778C168.982 51.8683 167.576 51.4872 165.992 51.5345C164.12 51.5904 162.574 52.0935 161.353 53.0438C160.132 53.9603 159.326 55.2366 158.935 56.8729Z" fill="white"/>
<path d="M203.641 35.0779L210.607 34.8698L210.723 70.4038L203.757 70.6119L203.748 67.6169C201.704 70.1486 198.792 71.471 195.012 71.5839C191.376 71.6925 188.258 70.4996 185.658 68.005C183.093 65.4755 181.805 62.3326 181.792 58.5761C181.78 54.8197 183.048 51.6173 185.595 48.9689C188.179 46.2857 191.288 44.8897 194.924 44.7811C198.704 44.6682 201.624 45.8163 203.684 48.2255L203.641 35.0779ZM190.881 63.4829C192.325 64.7597 194.128 65.3659 196.287 65.3014C198.447 65.2368 200.227 64.5237 201.627 63.1619C203.026 61.7663 203.723 60.0194 203.716 57.9212C203.709 55.823 203.001 54.1349 201.593 52.857C200.185 51.5453 198.401 50.9217 196.241 50.9862C194.081 51.0507 192.283 51.7814 190.847 53.1781C189.448 54.5398 188.751 56.2698 188.758 58.368C188.765 60.4662 189.473 62.1712 190.881 63.4829Z" fill="white"/>
<path d="M221.867 60.0696C222.813 63.2228 225.356 64.7375 229.496 64.6139C232.16 64.5343 234.173 63.628 235.536 61.895L241.162 64.773C238.51 68.4737 234.592 70.4015 229.408 70.5563C224.944 70.6897 221.358 69.5276 218.65 67.0701C215.941 64.6127 214.581 61.4549 214.568 57.597C214.556 53.7728 215.877 50.5519 218.533 47.9341C221.189 45.2826 224.604 43.8944 228.78 43.7697C232.74 43.6514 236.002 44.84 238.567 47.3357C241.167 49.8302 242.473 52.9726 242.486 56.7629C242.488 57.609 242.401 58.5085 242.224 59.4614L221.867 60.0696ZM221.742 54.9965L235.512 54.5852C235.11 52.8711 234.278 51.6098 233.016 50.8014C231.789 49.9919 230.383 49.6108 228.8 49.6582C226.928 49.7141 225.381 50.2172 224.16 51.1675C222.939 52.0839 222.133 53.3603 221.742 54.9965Z" fill="white"/>
<path d="M269.092 65.5124C266.329 68.1672 262.949 69.5543 258.953 69.6737C254.957 69.7931 251.569 68.6082 248.789 66.119C246.044 63.5949 244.666 60.4546 244.654 56.6982C244.641 52.9417 245.999 49.7366 248.727 47.0829C251.49 44.3943 254.87 42.9903 258.866 42.8709C262.861 42.7515 266.25 43.9533 269.03 46.4763C271.81 48.9655 273.207 52.0883 273.219 55.8448C273.231 59.6012 271.856 62.8238 269.092 65.5124ZM253.688 61.4543C255.096 62.7322 256.844 63.3399 258.932 63.2776C261.02 63.2152 262.764 62.5031 264.164 61.1413C265.563 59.7795 266.26 58.0834 266.253 56.0529C266.246 54.0224 265.539 52.3682 264.131 51.0903C262.723 49.8124 260.974 49.2046 258.886 49.267C256.798 49.3294 255.055 50.0415 253.655 51.4032C252.291 52.7639 251.613 54.4595 251.619 56.4901C251.626 58.5206 252.316 60.1753 253.688 61.4543Z" fill="white"/>
<rect width="50.7167" height="41.2074" transform="matrix(0.999554 -0.0298614 0.00326402 0.999995 15.928 35.8049)" fill="white"/>
<rect width="19.0188" height="15.849" rx="7.92449" transform="matrix(0.999554 -0.0298614 0.00326402 0.999995 50.7288 18.9148)" fill="white"/>
<path fill-rule="evenodd" clip-rule="evenodd" d="M56.0971 18.9176C49.2036 19.8366 38.3246 22.5508 30.1087 25.4013C19.6023 29.0465 14.1517 31.216 9.0964 33.7643C4.61075 36.0256 1.97962 39.164 0.83862 43.6139C-0.253303 47.8721 -0.114687 52.3748 1.48189 64.5211C2.60754 73.0841 2.89645 74.7563 3.63801 77.001C5.78806 83.5087 11.7269 88.4371 18.6185 89.4332C23.2229 90.0987 34.4429 88.5072 45.9605 85.5547C48.751 84.8394 50.6223 85.1514 52.1046 86.5792C53.0105 87.4519 53.3335 88.1165 53.6629 89.784C54.2639 92.8282 54.6123 93.8566 55.2142 94.3638C55.9687 94.9994 56.8005 94.9818 57.6851 94.3115C59.0234 93.2973 61.6151 90.782 62.825 89.3227C68.9527 81.9333 72.6722 72.6115 75.1135 58.525C76.0555 53.0896 76.3416 50.0912 76.337 45.6966C76.3271 35.7531 74.1179 27.8375 69.9712 22.8868C68.2793 20.8671 67.2315 20.4788 68.0017 22.157C68.5403 23.3305 68.5997 25.455 68.1339 26.8774C66.9379 30.5297 62.6664 32.5703 59.1966 31.147C57.7958 30.5725 56.3832 29.2183 55.699 27.7939C55.1736 26.7002 55.128 26.4814 55.1261 25.0379C55.1243 23.6764 55.1837 23.3392 55.5778 22.4775C56.1168 21.2989 57.0066 20.1432 57.7753 19.6232C58.0808 19.4167 58.3313 19.1628 58.3321 19.0589C58.3336 18.8584 57.937 18.6672 57.6153 18.7133C57.509 18.7285 56.8257 18.8205 56.0971 18.9176ZM60.5205 21.7522C59.3063 22.2737 58.3492 23.682 58.3533 24.9413C58.3622 27.6659 61.4963 29.2562 63.7057 27.6572C64.7418 26.9074 65.1841 25.9255 65.1085 24.5426C65.0571 23.6041 64.9721 23.3482 64.5381 22.8265C63.7809 21.9159 62.9126 21.5081 61.8212 21.5499C61.3201 21.5692 60.7348 21.6601 60.5205 21.7522ZM59.4929 36.4734C60.7422 37.0379 61.6197 38.6337 62.0312 41.0897C62.8789 46.1486 61.8834 54.4669 59.7979 59.7511C58.4689 63.118 57.105 64.5235 53.0666 66.6859C49.9954 68.3305 45.6398 69.6937 39.0381 71.0769C37.0349 71.4964 34.9862 71.9372 34.4855 72.0565C33.1392 72.3767 29.3365 72.4417 27.8955 72.169C23.9383 71.4204 21.2288 69.5017 19.645 66.3261C18.6731 64.3776 18.2948 62.8824 17.9468 59.6147C17.5792 56.1631 17.6667 52.3997 18.1582 50.5212C19.3095 46.1209 22.4675 43.3708 29.1092 40.9848C30.7173 40.4071 31.1574 40.3819 31.3438 40.8565C31.4715 41.1815 30.4041 44.5987 29.6464 46.2907C29.0303 47.6666 28.9995 48.1559 29.5248 48.2156C29.7076 48.2364 31.0095 47.6682 32.4182 46.953C33.8267 46.2378 35.8722 45.201 36.9638 44.649C44.3614 40.9087 52.9292 37.2705 56.1545 36.5001C57.8006 36.1069 58.666 36.1 59.4929 36.4734ZM54.1812 53.8426C50.9545 57.648 47.8447 59.1858 42.6731 59.5341C40.4811 59.6816 40.3748 59.705 40.2094 60.0742C40.0688 60.3882 40.1158 60.59 40.4628 61.1591C42.2892 64.1558 45.7031 64.8604 50.4412 63.219C52.0682 62.6553 52.7874 62.2461 53.7956 61.3101C54.7872 60.3895 55.5798 58.8927 55.7951 57.5341C55.9589 56.5008 55.7477 53.9947 55.4695 53.6705C55.0932 53.2316 54.6489 53.2909 54.1812 53.8426Z" fill="#D91883"/>
</svg>
