<svg width="16" height="16" viewBox="0 0 16 16" fill="none" xmlns="http://www.w3.org/2000/svg">
<g clip-path="url(#clip0_7_5521)">
<path fill-rule="evenodd" clip-rule="evenodd" d="M9.50032 2C9.36771 2 9.24053 1.94732 9.14676 1.85355C9.053 1.75979 9.00032 1.63261 9.00032 1.5C9.00032 1.36739 9.053 1.24021 9.14676 1.14645C9.24053 1.05268 9.36771 1 9.50032 1H14.5003C14.6329 1 14.7601 1.05268 14.8539 1.14645C14.9476 1.24021 15.0003 1.36739 15.0003 1.5V6.5C15.0003 6.63261 14.9476 6.75979 14.8539 6.85355C14.7601 6.94732 14.6329 7 14.5003 7C14.3677 7 14.2405 6.94732 14.1468 6.85355C14.053 6.75979 14.0003 6.63261 14.0003 6.5V2.707L9.87132 6.836C10.6831 7.82919 11.0822 9.0964 10.9859 10.3755C10.8896 11.6547 10.3054 12.8479 9.35413 13.7084C8.40282 14.5689 7.15718 15.0309 5.87482 14.9987C4.59247 14.9666 3.37151 14.4429 2.46447 13.5359C1.55742 12.6288 1.03368 11.4078 1.00157 10.1255C0.969454 8.84314 1.43142 7.5975 2.29193 6.64619C3.15243 5.69488 4.34565 5.11068 5.62478 5.01442C6.90392 4.91815 8.17113 5.31719 9.16432 6.129L13.2933 2H9.50032ZM6.00032 6C4.93945 6 3.92204 6.42143 3.17189 7.17157C2.42175 7.92172 2.00032 8.93913 2.00032 10C2.00032 11.0609 2.42175 12.0783 3.17189 12.8284C3.92204 13.5786 4.93945 14 6.00032 14C7.06118 14 8.0786 13.5786 8.82875 12.8284C9.57889 12.0783 10.0003 11.0609 10.0003 10C10.0003 8.93913 9.57889 7.92172 8.82875 7.17157C8.0786 6.42143 7.06118 6 6.00032 6Z" fill="white" stroke="white" stroke-width="0.5"/>
</g>
<defs>
<clipPath id="clip0_7_5521">
<rect width="16" height="16" fill="white"/>
</clipPath>
</defs>
</svg>
