<svg viewBox="0 0 17 17" fill="none" xmlns="http://www.w3.org/2000/svg">
<path d="M8.50005 15.6666C5.03339 15.6666 2.22005 12.8466 2.22005 9.38664C2.22005 5.92664 5.03339 3.09998 8.50005 3.09998C9.21339 3.09998 9.90672 3.19998 10.5734 3.40664C10.8401 3.48664 10.9867 3.76664 10.9067 4.03331C10.8267 4.29998 10.5467 4.44664 10.2801 4.36664C9.71339 4.19331 9.11339 4.09998 8.50005 4.09998C5.58672 4.09998 3.22005 6.46664 3.22005 9.37998C3.22005 12.2933 5.58672 14.66 8.50005 14.66C11.4134 14.66 13.7801 12.2933 13.7801 9.37998C13.7801 8.32664 13.4734 7.31331 12.8934 6.44664C12.7401 6.21998 12.8001 5.90664 13.0334 5.75331C13.2601 5.59998 13.5734 5.65998 13.7267 5.89331C14.4201 6.92664 14.7867 8.13331 14.7867 9.38664C14.7801 12.8466 11.9667 15.6666 8.50005 15.6666Z" fill="#5E5E5E"/>
<path d="M11.2533 4.54664C11.1133 4.54664 10.9733 4.48664 10.8733 4.37331L8.94663 2.15998C8.76663 1.95331 8.78663 1.63331 8.9933 1.45331C9.19997 1.27331 9.51997 1.29331 9.69997 1.49998L11.6266 3.71331C11.8066 3.91998 11.7866 4.23998 11.58 4.41998C11.4933 4.50664 11.3733 4.54664 11.2533 4.54664Z" fill="#5E5E5E"/>
<path d="M9.00664 6.1866C8.85331 6.1866 8.69998 6.11326 8.59998 5.97993C8.43998 5.75993 8.48664 5.4466 8.70664 5.27993L10.9533 3.63993C11.1733 3.47326 11.4866 3.5266 11.6533 3.7466C11.82 3.9666 11.7666 4.27993 11.5466 4.4466L9.29998 6.09326C9.21331 6.15993 9.11331 6.1866 9.00664 6.1866Z" fill="#5E5E5E"/>
</svg>
