<svg  viewBox="0 0 100 100" fill="none" xmlns="http://www.w3.org/2000/svg">
<path d="M70.8333 88.5416H29.1666C27.4583 88.5416 26.0416 87.1249 26.0416 85.4166C26.0416 83.7083 27.4583 82.2916 29.1666 82.2916H70.8333C82.75 82.2916 88.5416 76.4999 88.5416 64.5832V35.4166C88.5416 23.4999 82.75 17.7083 70.8333 17.7083H29.1666C17.25 17.7083 11.4583 23.4999 11.4583 35.4166C11.4583 37.1249 10.0416 38.5416 8.33331 38.5416C6.62498 38.5416 5.20831 37.1249 5.20831 35.4166C5.20831 20.2083 13.9583 11.4583 29.1666 11.4583H70.8333C86.0416 11.4583 94.7916 20.2083 94.7916 35.4166V64.5832C94.7916 79.7916 86.0416 88.5416 70.8333 88.5416Z" fill="url(#paint0_linear_7_7632)" fill-opacity="0.8"/>
<path d="M49.9991 53.6249C46.4991 53.6249 42.9574 52.5415 40.2491 50.3332L27.2074 39.9165C25.8741 38.8332 25.6241 36.8749 26.7074 35.5415C27.7908 34.2082 29.7491 33.9582 31.0824 35.0416L44.1241 45.4582C47.2907 47.9999 52.6657 47.9999 55.8324 45.4582L68.8741 35.0416C70.2074 33.9582 72.2074 34.1665 73.249 35.5415C74.3324 36.8749 74.1241 38.8749 72.7491 39.9165L59.7074 50.3332C57.0407 52.5415 53.4991 53.6249 49.9991 53.6249Z" fill="url(#paint1_linear_7_7632)" fill-opacity="0.8"/>
<path d="M33.3333 71.875H8.33331C6.62498 71.875 5.20831 70.4583 5.20831 68.75C5.20831 67.0417 6.62498 65.625 8.33331 65.625H33.3333C35.0416 65.625 36.4583 67.0417 36.4583 68.75C36.4583 70.4583 35.0416 71.875 33.3333 71.875Z" fill="url(#paint2_linear_7_7632)" fill-opacity="0.8"/>
<path d="M20.8333 55.2083H8.33331C6.62498 55.2083 5.20831 53.7916 5.20831 52.0833C5.20831 50.3749 6.62498 48.9583 8.33331 48.9583H20.8333C22.5416 48.9583 23.9583 50.3749 23.9583 52.0833C23.9583 53.7916 22.5416 55.2083 20.8333 55.2083Z" fill="url(#paint3_linear_7_7632)" fill-opacity="0.8"/>
<defs>
<linearGradient id="paint0_linear_7_7632" x1="5.20831" y1="88.5415" x2="97.7865" y2="84.7591" gradientUnits="userSpaceOnUse">
<stop stop-color="#E90181"/>
<stop offset="1" stop-color="#0029FF"/>
</linearGradient>
<linearGradient id="paint1_linear_7_7632" x1="26.0295" y1="53.6248" x2="75.2485" y2="49.3237" gradientUnits="userSpaceOnUse">
<stop stop-color="#E90181"/>
<stop offset="1" stop-color="#0029FF"/>
</linearGradient>
<linearGradient id="paint2_linear_7_7632" x1="5.20831" y1="71.875" x2="36.5874" y2="66.3591" gradientUnits="userSpaceOnUse">
<stop stop-color="#E90181"/>
<stop offset="1" stop-color="#0029FF"/>
</linearGradient>
<linearGradient id="paint3_linear_7_7632" x1="5.20831" y1="55.2082" x2="24.404" y2="53.1837" gradientUnits="userSpaceOnUse">
<stop stop-color="#E90181"/>
<stop offset="1" stop-color="#0029FF"/>
</linearGradient>
</defs>
</svg>
