<svg width="40" height="41" viewBox="0 0 40 41" fill="none" xmlns="http://www.w3.org/2000/svg">
<g clip-path="url(#clip0_7_5449)">
<path d="M40 20.1079C40 9.06221 31.0457 0.10791 20 0.10791C8.9543 0.10791 0 9.06221 0 20.1079C0 31.1536 8.9543 40.1079 20 40.1079C31.0457 40.1079 40 31.1536 40 20.1079Z" fill="url(#paint0_linear_7_5449)"/>
<path d="M14.8319 22.8612L19.0908 26.9263L23.3497 22.8612C26.5417 22.9932 29.0908 25.4861 29.0908 28.5627V28.9718C29.0908 30.1008 28.131 31.017 26.9479 31.017H11.2337C10.0506 31.017 9.09082 30.1008 9.09082 28.9718V28.5627C9.09082 25.4861 11.6399 22.9932 14.8319 22.8612ZM28.4837 12.6003L28.1979 12.6642V15.1527C28.5105 15.3317 28.7337 15.6428 28.7337 16.0178C28.7337 16.3757 28.5283 16.674 28.2381 16.8572L28.9346 19.5119C29.0105 19.8059 28.8408 20.1085 28.5954 20.1085H26.7292C26.4837 20.1085 26.3141 19.8059 26.3899 19.5119L27.0863 16.8572C26.7961 16.674 26.5908 16.3757 26.5908 16.0178C26.5908 15.6428 26.8141 15.3317 27.1265 15.1527V12.9114L24.1801 13.5889C24.5641 14.3218 24.8052 15.14 24.8052 16.0178C24.8052 19.0305 22.247 21.4721 19.0908 21.4721C15.9346 21.4721 13.3765 19.0305 13.3765 16.0178C13.3765 15.14 13.6131 14.3218 14.0015 13.5889L9.70242 12.6003C8.88993 12.4128 8.88993 11.4455 9.70242 11.258L18.2025 9.29792C18.7828 9.16583 19.3945 9.16583 19.9748 9.29792L28.4837 11.2538C29.2917 11.4413 29.2917 12.4128 28.4837 12.6003Z" fill="white"/>
</g>
<defs>
<linearGradient id="paint0_linear_7_5449" x1="-5.72912e-07" y1="40.1079" x2="41.3551" y2="38.6541" gradientUnits="userSpaceOnUse">
<stop offset="0.0001" stop-color="#3378FF"/>
<stop offset="1" stop-color="#5359E2"/>
</linearGradient>
<clipPath id="clip0_7_5449">
<rect width="40" height="40" fill="white" transform="translate(0 0.10791)"/>
</clipPath>
</defs>
</svg>
