<svg viewBox="0 0 40 41" fill="none" xmlns="http://www.w3.org/2000/svg">
<g clip-path="url(#clip0_7_5421)">
<path d="M40 20.1079C40 9.06221 31.0457 0.10791 20 0.10791C8.9543 0.10791 0 9.06221 0 20.1079C0 31.1536 8.9543 40.1079 20 40.1079C31.0457 40.1079 40 31.1536 40 20.1079Z" fill="url(#paint0_linear_7_5421)"/>
<path d="M40 20.1079C40 9.06221 31.0457 0.10791 20 0.10791C8.9543 0.10791 0 9.06221 0 20.1079C0 31.1536 8.9543 40.1079 20 40.1079C31.0457 40.1079 40 31.1536 40 20.1079Z" fill="#5D8C67" fill-opacity="0.79"/>
<path d="M40 20.1079C40 9.06221 31.0457 0.10791 20 0.10791C8.9543 0.10791 0 9.06221 0 20.1079C0 31.1536 8.9543 40.1079 20 40.1079C31.0457 40.1079 40 31.1536 40 20.1079Z" fill="url(#paint1_linear_7_5421)" fill-opacity="0.49"/>
<path d="M31.9888 29.1986C31.9888 29.4399 31.9108 29.671 31.7724 29.8415C31.6339 30.012 31.4459 30.1077 31.25 30.1077H10.5682C10.3723 30.1077 10.1844 30.012 10.0459 29.8415C9.90741 29.671 9.82959 29.4399 9.82959 29.1986C9.82959 28.9575 9.90741 28.7264 10.0459 28.5559C10.1844 28.3853 10.3723 28.2895 10.5682 28.2895H31.25C31.4459 28.2895 31.6339 28.3853 31.7724 28.5559C31.9108 28.7264 31.9888 28.9575 31.9888 29.1986ZM10.5959 16.7214C10.5519 16.5309 10.5596 16.3279 10.618 16.1433C10.6763 15.9587 10.782 15.8026 10.9191 15.6987L20.5213 8.42596C20.6375 8.33619 20.7719 8.28857 20.9091 8.28857C21.0464 8.28857 21.1808 8.33619 21.297 8.42596L30.8991 15.6987C31.0357 15.8028 31.1408 15.9587 31.1988 16.1429C31.2568 16.3271 31.2644 16.5295 31.2206 16.7196C31.1768 16.9096 31.0839 17.077 30.9559 17.1962C30.828 17.3154 30.6719 17.3802 30.5113 17.3805H28.2955V24.6531H29.7728C29.9686 24.6531 30.1566 24.749 30.2951 24.9195C30.4335 25.09 30.5113 25.3211 30.5113 25.5622C30.5113 25.8035 30.4335 26.0346 30.2951 26.2051C30.1566 26.3757 29.9686 26.4713 29.7728 26.4713H12.0455C11.8496 26.4713 11.6617 26.3757 11.5232 26.2051C11.3847 26.0346 11.3069 25.8035 11.3069 25.5622C11.3069 25.3211 11.3847 25.09 11.5232 24.9195C11.6617 24.749 11.8496 24.6531 12.0455 24.6531H13.5228V17.3805H11.3069C11.1462 17.3807 10.99 17.3165 10.8617 17.1976C10.7334 17.0786 10.6401 16.9115 10.5959 16.7214ZM22.3864 23.744C22.3864 23.9853 22.4642 24.2164 22.6028 24.387C22.7413 24.5575 22.9291 24.6531 23.1251 24.6531C23.321 24.6531 23.5088 24.5575 23.6473 24.387C23.7859 24.2164 23.8637 23.9853 23.8637 23.744V18.2896C23.8637 18.0485 23.7859 17.8172 23.6473 17.6468C23.5088 17.4763 23.321 17.3805 23.1251 17.3805C22.9291 17.3805 22.7413 17.4763 22.6028 17.6468C22.4642 17.8172 22.3864 18.0485 22.3864 18.2896V23.744ZM17.9546 23.744C17.9546 23.9853 18.0324 24.2164 18.1709 24.387C18.3095 24.5575 18.4973 24.6531 18.6931 24.6531C18.8891 24.6531 19.077 24.5575 19.2155 24.387C19.354 24.2164 19.4319 23.9853 19.4319 23.744V18.2896C19.4319 18.0485 19.354 17.8172 19.2155 17.6468C19.077 17.4763 18.8891 17.3805 18.6931 17.3805C18.4973 17.3805 18.3095 17.4763 18.1709 17.6468C18.0324 17.8172 17.9546 18.0485 17.9546 18.2896V23.744Z" fill="white"/>
</g>
<defs>
<linearGradient id="paint0_linear_7_5421" x1="-5.72912e-07" y1="40.1079" x2="41.3551" y2="38.6541" gradientUnits="userSpaceOnUse">
<stop offset="0.745981" stop-color="#71DE3D"/>
<stop offset="1" stop-color="#8590EF"/>
</linearGradient>
<linearGradient id="paint1_linear_7_5421" x1="0" y1="20.1079" x2="40" y2="20.1079" gradientUnits="userSpaceOnUse">
<stop offset="0.501868" stop-color="#4700DD" stop-opacity="0"/>
<stop offset="1" stop-color="#B304F0"/>
</linearGradient>
<clipPath id="clip0_7_5421">
<rect width="40" height="40" fill="white" transform="translate(0 0.10791)"/>
</clipPath>
</defs>
</svg>
