<svg viewBox="0 0 16 16" fill="none" xmlns="http://www.w3.org/2000/svg">
<path d="M8 9.83333C7.72667 9.83333 7.5 9.60667 7.5 9.33333V6C7.5 5.72667 7.72667 5.5 8 5.5C8.27333 5.5 8.5 5.72667 8.5 6V9.33333C8.5 9.60667 8.27333 9.83333 8 9.83333Z" fill="#FF015C"/>
<path d="M7.99992 12C7.95992 12 7.91325 11.9934 7.86659 11.9867C7.82659 11.98 7.78659 11.9667 7.74659 11.9467C7.70659 11.9334 7.66659 11.9134 7.62659 11.8867C7.59325 11.86 7.55992 11.8334 7.52659 11.8067C7.40659 11.68 7.33325 11.5067 7.33325 11.3334C7.33325 11.16 7.40659 10.9867 7.52659 10.86C7.55992 10.8334 7.59325 10.8067 7.62659 10.78C7.66659 10.7534 7.70659 10.7334 7.74659 10.72C7.78659 10.7 7.82659 10.6867 7.86659 10.68C7.95325 10.66 8.04659 10.66 8.12659 10.68C8.17325 10.6867 8.21325 10.7 8.25325 10.72C8.29325 10.7334 8.33325 10.7534 8.37325 10.78C8.40659 10.8067 8.43992 10.8334 8.47325 10.86C8.59325 10.9867 8.66659 11.16 8.66659 11.3334C8.66659 11.5067 8.59325 11.68 8.47325 11.8067C8.43992 11.8334 8.40659 11.86 8.37325 11.8867C8.33325 11.9134 8.29325 11.9334 8.25325 11.9467C8.21325 11.9667 8.17325 11.98 8.12659 11.9867C8.08659 11.9934 8.03992 12 7.99992 12Z" fill="#FF015C"/>
<path d="M12.04 14.7734H3.95998C2.65998 14.7734 1.66665 14.3 1.15998 13.4467C0.659984 12.5934 0.726651 11.4934 1.35998 10.3534L5.39998 3.08668C6.06665 1.88668 6.98665 1.22668 7.99998 1.22668C9.01332 1.22668 9.93332 1.88668 10.6 3.08668L14.64 10.36C15.2733 11.5 15.3466 12.5934 14.84 13.4534C14.3333 14.3 13.34 14.7734 12.04 14.7734ZM7.99998 2.22668C7.37332 2.22668 6.75998 2.70668 6.27332 3.57335L2.23998 10.8467C1.78665 11.66 1.71332 12.4067 2.02665 12.9467C2.33998 13.4867 3.03332 13.78 3.96665 13.78H12.0466C12.98 13.78 13.6666 13.4867 13.9866 12.9467C14.3066 12.4067 14.2266 11.6667 13.7733 10.8467L9.72665 3.57335C9.23998 2.70668 8.62665 2.22668 7.99998 2.22668Z" fill="#FF015C"/>
</svg>
